<?xml version="1.0" standalone="no"?>
<!DOCTYPE svg PUBLIC "-//W3C//DTD SVG 20010904//EN"
 "http://www.w3.org/TR/2001/REC-SVG-20010904/DTD/svg10.dtd">
<svg version="1.0" xmlns="http://www.w3.org/2000/svg"
 width="500.000000pt" height="500.000000pt" viewBox="0 0 500.000000 500.000000"
 preserveAspectRatio="xMidYMid meet">

<g transform="translate(0.000000,500.000000) scale(0.100000,-0.100000)"
fill="#000000" stroke="none">
<path d="M3184 3696 c-72 -33 -119 -79 -150 -144 -58 -119 -28 -263 72 -351
62 -54 127 -75 218 -69 89 6 138 30 200 98 72 82 93 179 60 290 -21 71 -107
159 -178 183 -72 25 -160 22 -222 -7z"/>
<path d="M2582 3379 c-89 -15 -160 -55 -239 -137 -191 -197 -344 -493 -409
-792 -14 -63 -19 -125 -18 -240 0 -175 18 -260 96 -458 26 -68 37 -107 30
-111 -6 -4 -127 -19 -269 -35 -155 -17 -271 -34 -291 -43 -100 -47 -108 -197
-13 -260 l34 -23 437 0 c497 0 500 0 569 75 38 41 71 120 71 168 0 11 -23 117
-51 236 -48 201 -51 222 -44 300 3 46 17 127 31 180 38 152 193 446 207 395 3
-11 40 -163 81 -339 42 -176 83 -334 92 -352 21 -40 74 -67 119 -59 40 8 82
45 91 83 9 33 -91 1048 -112 1141 -8 34 -21 77 -30 94 -25 49 -95 118 -144
143 -41 21 -146 47 -174 44 -6 -1 -35 -5 -64 -10z"/>
</g>
</svg>
