<?xml version="1.0" standalone="no"?>
<!DOCTYPE svg PUBLIC "-//W3C//DTD SVG 20010904//EN"
 "http://www.w3.org/TR/2001/REC-SVG-20010904/DTD/svg10.dtd">
<svg version="1.0" xmlns="http://www.w3.org/2000/svg"
 width="300.000000pt" height="300.000000pt" viewBox="0 0 300.000000 300.000000"
 preserveAspectRatio="xMidYMid meet">

<g transform="translate(0.000000,300.000000) scale(0.100000,-0.100000)"
fill="#000000" stroke="none">
<path d="M850 2591 c-23 -44 -11 -70 102 -224 62 -83 154 -205 203 -270 l91
-117 12 -468 c26 -973 30 -1064 51 -1092 15 -21 27 -25 66 -25 83 0 82 -5 100
396 8 191 15 373 15 405 0 33 4 54 9 49 4 -6 16 -188 25 -405 19 -456 16 -445
101 -445 39 0 51 4 66 25 21 28 24 104 51 1097 l12 463 91 117 c209 273 315
423 315 448 0 46 -17 65 -58 65 -35 0 -44 -8 -170 -153 -216 -245 -296 -302
-432 -302 -136 0 -216 57 -432 302 -126 145 -135 153 -170 153 -27 0 -40 -5
-48 -19z"/>
<path d="M1450 2548 c-77 -21 -124 -93 -118 -178 5 -69 35 -115 92 -141 52
-24 100 -24 152 0 57 26 87 72 92 141 6 87 -41 157 -123 179 -46 13 -48 13
-95 -1z"/>
</g>
</svg>
